<?xml version="1.0" encoding="utf-8"?>
<svg xmlns="http://www.w3.org/2000/svg" xmlns:xlink="http://www.w3.org/1999/xlink" width="500" height="300" viewBox="0 0 2000 1200">
<defs>
  <clipPath id="clip600">
    <rect x="0" y="0" width="2000" height="1200"/>
  </clipPath>
</defs>
<path clip-path="url(#clip600)" d="
M0 1200 L2000 1200 L2000 0 L0 0  Z
  " fill="#ffffff" fill-rule="evenodd" fill-opacity="1"/>
<defs>
  <clipPath id="clip601">
    <rect x="400" y="0" width="1401" height="1200"/>
  </clipPath>
</defs>
<path clip-path="url(#clip600)" d="
M182.274 1093.9 L1952.76 1093.9 L1952.76 47.2441 L182.274 47.2441  Z
  " fill="#ffffff" fill-rule="evenodd" fill-opacity="1"/>
<defs>
  <clipPath id="clip602">
    <rect x="182" y="47" width="1771" height="1048"/>
  </clipPath>
</defs>
<polyline clip-path="url(#clip602)" style="stroke:#000000; stroke-linecap:butt; stroke-linejoin:round; stroke-width:2; stroke-opacity:0.1; fill:none" points="
  321.587,1093.9 321.587,47.2441 
  "/>
<polyline clip-path="url(#clip602)" style="stroke:#000000; stroke-linecap:butt; stroke-linejoin:round; stroke-width:2; stroke-opacity:0.1; fill:none" points="
  787.984,1093.9 787.984,47.2441 
  "/>
<polyline clip-path="url(#clip602)" style="stroke:#000000; stroke-linecap:butt; stroke-linejoin:round; stroke-width:2; stroke-opacity:0.1; fill:none" points="
  1254.38,1093.9 1254.38,47.2441 
  "/>
<polyline clip-path="url(#clip602)" style="stroke:#000000; stroke-linecap:butt; stroke-linejoin:round; stroke-width:2; stroke-opacity:0.1; fill:none" points="
  1720.78,1093.9 1720.78,47.2441 
  "/>
<polyline clip-path="url(#clip600)" style="stroke:#000000; stroke-linecap:butt; stroke-linejoin:round; stroke-width:4; stroke-opacity:1; fill:none" points="
  182.274,1093.9 1952.76,1093.9 
  "/>
<polyline clip-path="url(#clip600)" style="stroke:#000000; stroke-linecap:butt; stroke-linejoin:round; stroke-width:4; stroke-opacity:1; fill:none" points="
  321.587,1093.9 321.587,1075.01 
  "/>
<polyline clip-path="url(#clip600)" style="stroke:#000000; stroke-linecap:butt; stroke-linejoin:round; stroke-width:4; stroke-opacity:1; fill:none" points="
  787.984,1093.9 787.984,1075.01 
  "/>
<polyline clip-path="url(#clip600)" style="stroke:#000000; stroke-linecap:butt; stroke-linejoin:round; stroke-width:4; stroke-opacity:1; fill:none" points="
  1254.38,1093.9 1254.38,1075.01 
  "/>
<polyline clip-path="url(#clip600)" style="stroke:#000000; stroke-linecap:butt; stroke-linejoin:round; stroke-width:4; stroke-opacity:1; fill:none" points="
  1720.78,1093.9 1720.78,1075.01 
  "/>
<path clip-path="url(#clip600)" d="M310.43 1134.47 Q313.786 1135.19 315.661 1137.46 Q317.559 1139.72 317.559 1143.06 Q317.559 1148.17 314.041 1150.97 Q310.522 1153.78 304.041 1153.78 Q301.865 1153.78 299.55 1153.34 Q297.258 1152.92 294.805 1152.06 L294.805 1147.55 Q296.749 1148.68 299.064 1149.26 Q301.379 1149.84 303.902 1149.84 Q308.3 1149.84 310.592 1148.1 Q312.906 1146.37 312.906 1143.06 Q312.906 1140 310.754 1138.29 Q308.624 1136.55 304.805 1136.55 L300.777 1136.55 L300.777 1132.71 L304.99 1132.71 Q308.439 1132.71 310.268 1131.34 Q312.096 1129.96 312.096 1127.36 Q312.096 1124.7 310.198 1123.29 Q308.323 1121.85 304.805 1121.85 Q302.883 1121.85 300.684 1122.27 Q298.485 1122.69 295.846 1123.57 L295.846 1119.4 Q298.508 1118.66 300.823 1118.29 Q303.161 1117.92 305.221 1117.92 Q310.545 1117.92 313.647 1120.35 Q316.749 1122.76 316.749 1126.88 Q316.749 1129.75 315.105 1131.74 Q313.462 1133.71 310.43 1134.47 Z" fill="#000000" fill-rule="evenodd" fill-opacity="1" /><path clip-path="url(#clip600)" d="M336.425 1121.62 Q332.814 1121.62 330.985 1125.19 Q329.179 1128.73 329.179 1135.86 Q329.179 1142.97 330.985 1146.53 Q332.814 1150.07 336.425 1150.07 Q340.059 1150.07 341.865 1146.53 Q343.693 1142.97 343.693 1135.86 Q343.693 1128.73 341.865 1125.19 Q340.059 1121.62 336.425 1121.62 M336.425 1117.92 Q342.235 1117.92 345.29 1122.53 Q348.369 1127.11 348.369 1135.86 Q348.369 1144.59 345.29 1149.19 Q342.235 1153.78 336.425 1153.78 Q330.615 1153.78 327.536 1149.19 Q324.48 1144.59 324.48 1135.86 Q324.48 1127.11 327.536 1122.53 Q330.615 1117.92 336.425 1117.92 Z" fill="#000000" fill-rule="evenodd" fill-opacity="1" /><path clip-path="url(#clip600)" d="M776.156 1122.62 L764.35 1141.07 L776.156 1141.07 L776.156 1122.62 M774.929 1118.54 L780.809 1118.54 L780.809 1141.07 L785.739 1141.07 L785.739 1144.96 L780.809 1144.96 L780.809 1153.1 L776.156 1153.1 L776.156 1144.96 L760.554 1144.96 L760.554 1140.44 L774.929 1118.54 Z" fill="#000000" fill-rule="evenodd" fill-opacity="1" /><path clip-path="url(#clip600)" d="M803.47 1121.62 Q799.859 1121.62 798.031 1125.19 Q796.225 1128.73 796.225 1135.86 Q796.225 1142.97 798.031 1146.53 Q799.859 1150.07 803.47 1150.07 Q807.105 1150.07 808.91 1146.53 Q810.739 1142.97 810.739 1135.86 Q810.739 1128.73 808.91 1125.19 Q807.105 1121.62 803.47 1121.62 M803.47 1117.92 Q809.281 1117.92 812.336 1122.53 Q815.415 1127.11 815.415 1135.86 Q815.415 1144.59 812.336 1149.19 Q809.281 1153.78 803.47 1153.78 Q797.66 1153.78 794.582 1149.19 Q791.526 1144.59 791.526 1135.86 Q791.526 1127.11 794.582 1122.53 Q797.66 1117.92 803.47 1117.92 Z" fill="#000000" fill-rule="evenodd" fill-opacity="1" /><path clip-path="url(#clip600)" d="M1229.08 1118.54 L1247.44 1118.54 L1247.44 1122.48 L1233.36 1122.48 L1233.36 1130.95 Q1234.38 1130.6 1235.4 1130.44 Q1236.42 1130.26 1237.44 1130.26 Q1243.22 1130.26 1246.6 1133.43 Q1249.98 1136.6 1249.98 1142.02 Q1249.98 1147.59 1246.51 1150.7 Q1243.04 1153.78 1236.72 1153.78 Q1234.54 1153.78 1232.28 1153.4 Q1230.03 1153.03 1227.62 1152.29 L1227.62 1147.59 Q1229.71 1148.73 1231.93 1149.28 Q1234.15 1149.84 1236.63 1149.84 Q1240.63 1149.84 1242.97 1147.73 Q1245.31 1145.63 1245.31 1142.02 Q1245.31 1138.4 1242.97 1136.3 Q1240.63 1134.19 1236.63 1134.19 Q1234.75 1134.19 1232.88 1134.61 Q1231.03 1135.03 1229.08 1135.9 L1229.08 1118.54 Z" fill="#000000" fill-rule="evenodd" fill-opacity="1" /><path clip-path="url(#clip600)" d="M1269.2 1121.62 Q1265.59 1121.62 1263.76 1125.19 Q1261.95 1128.73 1261.95 1135.86 Q1261.95 1142.97 1263.76 1146.53 Q1265.59 1150.07 1269.2 1150.07 Q1272.83 1150.07 1274.64 1146.53 Q1276.47 1142.97 1276.47 1135.86 Q1276.47 1128.73 1274.64 1125.19 Q1272.83 1121.62 1269.2 1121.62 M1269.2 1117.92 Q1275.01 1117.92 1278.06 1122.53 Q1281.14 1127.11 1281.14 1135.86 Q1281.14 1144.59 1278.06 1149.19 Q1275.01 1153.78 1269.2 1153.78 Q1263.39 1153.78 1260.31 1149.19 Q1257.25 1144.59 1257.25 1135.86 Q1257.25 1127.11 1260.31 1122.53 Q1263.39 1117.92 1269.2 1117.92 Z" fill="#000000" fill-rule="evenodd" fill-opacity="1" /><path clip-path="url(#clip600)" d="M1706.18 1133.96 Q1703.04 1133.96 1701.18 1136.11 Q1699.36 1138.27 1699.36 1142.02 Q1699.36 1145.74 1701.18 1147.92 Q1703.04 1150.07 1706.18 1150.07 Q1709.33 1150.07 1711.16 1147.92 Q1713.01 1145.74 1713.01 1142.02 Q1713.01 1138.27 1711.16 1136.11 Q1709.33 1133.96 1706.18 1133.96 M1715.47 1119.31 L1715.47 1123.57 Q1713.71 1122.73 1711.9 1122.29 Q1710.12 1121.85 1708.36 1121.85 Q1703.73 1121.85 1701.28 1124.98 Q1698.85 1128.1 1698.5 1134.42 Q1699.87 1132.41 1701.93 1131.34 Q1703.99 1130.26 1706.46 1130.26 Q1711.67 1130.26 1714.68 1133.43 Q1717.71 1136.58 1717.71 1142.02 Q1717.71 1147.34 1714.56 1150.56 Q1711.42 1153.78 1706.18 1153.78 Q1700.19 1153.78 1697.02 1149.19 Q1693.85 1144.59 1693.85 1135.86 Q1693.85 1127.66 1697.74 1122.8 Q1701.62 1117.92 1708.18 1117.92 Q1709.93 1117.92 1711.72 1118.27 Q1713.52 1118.61 1715.47 1119.31 Z" fill="#000000" fill-rule="evenodd" fill-opacity="1" /><path clip-path="url(#clip600)" d="M1735.77 1121.62 Q1732.16 1121.62 1730.33 1125.19 Q1728.52 1128.73 1728.52 1135.86 Q1728.52 1142.97 1730.33 1146.53 Q1732.16 1150.07 1735.77 1150.07 Q1739.4 1150.07 1741.21 1146.53 Q1743.04 1142.97 1743.04 1135.86 Q1743.04 1128.73 1741.21 1125.19 Q1739.4 1121.62 1735.77 1121.62 M1735.77 1117.92 Q1741.58 1117.92 1744.63 1122.53 Q1747.71 1127.11 1747.71 1135.86 Q1747.71 1144.59 1744.63 1149.19 Q1741.58 1153.78 1735.77 1153.78 Q1729.96 1153.78 1726.88 1149.19 Q1723.82 1144.59 1723.82 1135.86 Q1723.82 1127.11 1726.88 1122.53 Q1729.96 1117.92 1735.77 1117.92 Z" fill="#000000" fill-rule="evenodd" fill-opacity="1" /><polyline clip-path="url(#clip602)" style="stroke:#000000; stroke-linecap:butt; stroke-linejoin:round; stroke-width:2; stroke-opacity:0.1; fill:none" points="
  182.274,1064.29 1952.76,1064.29 
  "/>
<polyline clip-path="url(#clip602)" style="stroke:#000000; stroke-linecap:butt; stroke-linejoin:round; stroke-width:2; stroke-opacity:0.1; fill:none" points="
  182.274,733.003 1952.76,733.003 
  "/>
<polyline clip-path="url(#clip602)" style="stroke:#000000; stroke-linecap:butt; stroke-linejoin:round; stroke-width:2; stroke-opacity:0.1; fill:none" points="
  182.274,401.713 1952.76,401.713 
  "/>
<polyline clip-path="url(#clip602)" style="stroke:#000000; stroke-linecap:butt; stroke-linejoin:round; stroke-width:2; stroke-opacity:0.1; fill:none" points="
  182.274,70.4228 1952.76,70.4228 
  "/>
<polyline clip-path="url(#clip600)" style="stroke:#000000; stroke-linecap:butt; stroke-linejoin:round; stroke-width:4; stroke-opacity:1; fill:none" points="
  182.274,1093.9 182.274,47.2441 
  "/>
<polyline clip-path="url(#clip600)" style="stroke:#000000; stroke-linecap:butt; stroke-linejoin:round; stroke-width:4; stroke-opacity:1; fill:none" points="
  182.274,1064.29 201.172,1064.29 
  "/>
<polyline clip-path="url(#clip600)" style="stroke:#000000; stroke-linecap:butt; stroke-linejoin:round; stroke-width:4; stroke-opacity:1; fill:none" points="
  182.274,733.003 201.172,733.003 
  "/>
<polyline clip-path="url(#clip600)" style="stroke:#000000; stroke-linecap:butt; stroke-linejoin:round; stroke-width:4; stroke-opacity:1; fill:none" points="
  182.274,401.713 201.172,401.713 
  "/>
<polyline clip-path="url(#clip600)" style="stroke:#000000; stroke-linecap:butt; stroke-linejoin:round; stroke-width:4; stroke-opacity:1; fill:none" points="
  182.274,70.4228 201.172,70.4228 
  "/>
<path clip-path="url(#clip600)" d="M64.9365 1050.09 Q61.3254 1050.09 59.4967 1053.66 Q57.6912 1057.2 57.6912 1064.33 Q57.6912 1071.43 59.4967 1075 Q61.3254 1078.54 64.9365 1078.54 Q68.5707 1078.54 70.3763 1075 Q72.205 1071.43 72.205 1064.33 Q72.205 1057.2 70.3763 1053.66 Q68.5707 1050.09 64.9365 1050.09 M64.9365 1046.39 Q70.7467 1046.39 73.8022 1050.99 Q76.8809 1055.58 76.8809 1064.33 Q76.8809 1073.05 73.8022 1077.66 Q70.7467 1082.24 64.9365 1082.24 Q59.1264 1082.24 56.0477 1077.66 Q52.9921 1073.05 52.9921 1064.33 Q52.9921 1055.58 56.0477 1050.99 Q59.1264 1046.39 64.9365 1046.39 Z" fill="#000000" fill-rule="evenodd" fill-opacity="1" /><path clip-path="url(#clip600)" d="M85.0984 1075.69 L89.9827 1075.69 L89.9827 1081.57 L85.0984 1081.57 L85.0984 1075.69 Z" fill="#000000" fill-rule="evenodd" fill-opacity="1" /><path clip-path="url(#clip600)" d="M110.168 1050.09 Q106.557 1050.09 104.728 1053.66 Q102.922 1057.2 102.922 1064.33 Q102.922 1071.43 104.728 1075 Q106.557 1078.54 110.168 1078.54 Q113.802 1078.54 115.608 1075 Q117.436 1071.43 117.436 1064.33 Q117.436 1057.2 115.608 1053.66 Q113.802 1050.09 110.168 1050.09 M110.168 1046.39 Q115.978 1046.39 119.033 1050.99 Q122.112 1055.58 122.112 1064.33 Q122.112 1073.05 119.033 1077.66 Q115.978 1082.24 110.168 1082.24 Q104.358 1082.24 101.279 1077.66 Q98.2234 1073.05 98.2234 1064.33 Q98.2234 1055.58 101.279 1050.99 Q104.358 1046.39 110.168 1046.39 Z" fill="#000000" fill-rule="evenodd" fill-opacity="1" /><path clip-path="url(#clip600)" d="M140.33 1050.09 Q136.719 1050.09 134.89 1053.66 Q133.084 1057.2 133.084 1064.33 Q133.084 1071.43 134.89 1075 Q136.719 1078.54 140.33 1078.54 Q143.964 1078.54 145.769 1075 Q147.598 1071.43 147.598 1064.33 Q147.598 1057.2 145.769 1053.66 Q143.964 1050.09 140.33 1050.09 M140.33 1046.39 Q146.14 1046.39 149.195 1050.99 Q152.274 1055.58 152.274 1064.33 Q152.274 1073.05 149.195 1077.66 Q146.14 1082.24 140.33 1082.24 Q134.519 1082.24 131.441 1077.66 Q128.385 1073.05 128.385 1064.33 Q128.385 1055.58 131.441 1050.99 Q134.519 1046.39 140.33 1046.39 Z" fill="#000000" fill-rule="evenodd" fill-opacity="1" /><path clip-path="url(#clip600)" d="M65.9319 718.802 Q62.3208 718.802 60.4921 722.366 Q58.6865 725.908 58.6865 733.038 Q58.6865 740.144 60.4921 743.709 Q62.3208 747.251 65.9319 747.251 Q69.5661 747.251 71.3717 743.709 Q73.2004 740.144 73.2004 733.038 Q73.2004 725.908 71.3717 722.366 Q69.5661 718.802 65.9319 718.802 M65.9319 715.098 Q71.742 715.098 74.7976 719.704 Q77.8763 724.288 77.8763 733.038 Q77.8763 741.764 74.7976 746.371 Q71.742 750.954 65.9319 750.954 Q60.1217 750.954 57.043 746.371 Q53.9875 741.764 53.9875 733.038 Q53.9875 724.288 57.043 719.704 Q60.1217 715.098 65.9319 715.098 Z" fill="#000000" fill-rule="evenodd" fill-opacity="1" /><path clip-path="url(#clip600)" d="M86.0938 744.403 L90.978 744.403 L90.978 750.283 L86.0938 750.283 L86.0938 744.403 Z" fill="#000000" fill-rule="evenodd" fill-opacity="1" /><path clip-path="url(#clip600)" d="M111.163 718.802 Q107.552 718.802 105.723 722.366 Q103.918 725.908 103.918 733.038 Q103.918 740.144 105.723 743.709 Q107.552 747.251 111.163 747.251 Q114.797 747.251 116.603 743.709 Q118.432 740.144 118.432 733.038 Q118.432 725.908 116.603 722.366 Q114.797 718.802 111.163 718.802 M111.163 715.098 Q116.973 715.098 120.029 719.704 Q123.107 724.288 123.107 733.038 Q123.107 741.764 120.029 746.371 Q116.973 750.954 111.163 750.954 Q105.353 750.954 102.274 746.371 Q99.2187 741.764 99.2187 733.038 Q99.2187 724.288 102.274 719.704 Q105.353 715.098 111.163 715.098 Z" fill="#000000" fill-rule="evenodd" fill-opacity="1" /><path clip-path="url(#clip600)" d="M131.371 715.723 L149.728 715.723 L149.728 719.658 L135.654 719.658 L135.654 728.13 Q136.672 727.783 137.691 727.621 Q138.709 727.436 139.728 727.436 Q145.515 727.436 148.894 730.607 Q152.274 733.778 152.274 739.195 Q152.274 744.774 148.802 747.876 Q145.33 750.954 139.01 750.954 Q136.834 750.954 134.566 750.584 Q132.32 750.213 129.913 749.473 L129.913 744.774 Q131.996 745.908 134.219 746.463 Q136.441 747.019 138.918 747.019 Q142.922 747.019 145.26 744.913 Q147.598 742.806 147.598 739.195 Q147.598 735.584 145.26 733.477 Q142.922 731.371 138.918 731.371 Q137.043 731.371 135.168 731.788 Q133.316 732.204 131.371 733.084 L131.371 715.723 Z" fill="#000000" fill-rule="evenodd" fill-opacity="1" /><path clip-path="url(#clip600)" d="M64.9365 387.512 Q61.3254 387.512 59.4967 391.076 Q57.6912 394.618 57.6912 401.748 Q57.6912 408.854 59.4967 412.419 Q61.3254 415.96 64.9365 415.96 Q68.5707 415.96 70.3763 412.419 Q72.205 408.854 72.205 401.748 Q72.205 394.618 70.3763 391.076 Q68.5707 387.512 64.9365 387.512 M64.9365 383.808 Q70.7467 383.808 73.8022 388.414 Q76.8809 392.998 76.8809 401.748 Q76.8809 410.474 73.8022 415.081 Q70.7467 419.664 64.9365 419.664 Q59.1264 419.664 56.0477 415.081 Q52.9921 410.474 52.9921 401.748 Q52.9921 392.998 56.0477 388.414 Q59.1264 383.808 64.9365 383.808 Z" fill="#000000" fill-rule="evenodd" fill-opacity="1" /><path clip-path="url(#clip600)" d="M85.0984 413.113 L89.9827 413.113 L89.9827 418.993 L85.0984 418.993 L85.0984 413.113 Z" fill="#000000" fill-rule="evenodd" fill-opacity="1" /><path clip-path="url(#clip600)" d="M100.978 415.058 L108.617 415.058 L108.617 388.692 L100.307 390.359 L100.307 386.099 L108.571 384.433 L113.246 384.433 L113.246 415.058 L120.885 415.058 L120.885 418.993 L100.978 418.993 L100.978 415.058 Z" fill="#000000" fill-rule="evenodd" fill-opacity="1" /><path clip-path="url(#clip600)" d="M140.33 387.512 Q136.719 387.512 134.89 391.076 Q133.084 394.618 133.084 401.748 Q133.084 408.854 134.89 412.419 Q136.719 415.96 140.33 415.96 Q143.964 415.96 145.769 412.419 Q147.598 408.854 147.598 401.748 Q147.598 394.618 145.769 391.076 Q143.964 387.512 140.33 387.512 M140.33 383.808 Q146.14 383.808 149.195 388.414 Q152.274 392.998 152.274 401.748 Q152.274 410.474 149.195 415.081 Q146.14 419.664 140.33 419.664 Q134.519 419.664 131.441 415.081 Q128.385 410.474 128.385 401.748 Q128.385 392.998 131.441 388.414 Q134.519 383.808 140.33 383.808 Z" fill="#000000" fill-rule="evenodd" fill-opacity="1" /><path clip-path="url(#clip600)" d="M65.9319 56.2215 Q62.3208 56.2215 60.4921 59.7863 Q58.6865 63.3279 58.6865 70.4575 Q58.6865 77.5639 60.4921 81.1287 Q62.3208 84.6704 65.9319 84.6704 Q69.5661 84.6704 71.3717 81.1287 Q73.2004 77.5639 73.2004 70.4575 Q73.2004 63.3279 71.3717 59.7863 Q69.5661 56.2215 65.9319 56.2215 M65.9319 52.5178 Q71.742 52.5178 74.7976 57.1242 Q77.8763 61.7075 77.8763 70.4575 Q77.8763 79.1843 74.7976 83.7908 Q71.742 88.3741 65.9319 88.3741 Q60.1217 88.3741 57.043 83.7908 Q53.9875 79.1843 53.9875 70.4575 Q53.9875 61.7075 57.043 57.1242 Q60.1217 52.5178 65.9319 52.5178 Z" fill="#000000" fill-rule="evenodd" fill-opacity="1" /><path clip-path="url(#clip600)" d="M86.0938 81.8232 L90.978 81.8232 L90.978 87.7028 L86.0938 87.7028 L86.0938 81.8232 Z" fill="#000000" fill-rule="evenodd" fill-opacity="1" /><path clip-path="url(#clip600)" d="M101.973 83.7676 L109.612 83.7676 L109.612 57.402 L101.302 59.0687 L101.302 54.8094 L109.566 53.1428 L114.242 53.1428 L114.242 83.7676 L121.881 83.7676 L121.881 87.7028 L101.973 87.7028 L101.973 83.7676 Z" fill="#000000" fill-rule="evenodd" fill-opacity="1" /><path clip-path="url(#clip600)" d="M131.371 53.1428 L149.728 53.1428 L149.728 57.0779 L135.654 57.0779 L135.654 65.5501 Q136.672 65.2029 137.691 65.0409 Q138.709 64.8557 139.728 64.8557 Q145.515 64.8557 148.894 68.0269 Q152.274 71.1982 152.274 76.6149 Q152.274 82.1935 148.802 85.2954 Q145.33 88.3741 139.01 88.3741 Q136.834 88.3741 134.566 88.0037 Q132.32 87.6333 129.913 86.8926 L129.913 82.1935 Q131.996 83.3278 134.219 83.8833 Q136.441 84.4389 138.918 84.4389 Q142.922 84.4389 145.26 82.3324 Q147.598 80.226 147.598 76.6149 Q147.598 73.0038 145.26 70.8973 Q142.922 68.7908 138.918 68.7908 Q137.043 68.7908 135.168 69.2075 Q133.316 69.6242 131.371 70.5038 L131.371 53.1428 Z" fill="#000000" fill-rule="evenodd" fill-opacity="1" /><polyline clip-path="url(#clip602)" style="stroke:#009af9; stroke-linecap:butt; stroke-linejoin:round; stroke-width:4; stroke-opacity:1; fill:none" points="
  353.642,1064.25 358.031,1064.24 362.42,1064.23 366.808,1064.2 371.197,1064.16 375.586,1064.11 379.975,1064.03 384.363,1063.92 388.752,1063.78 393.141,1063.57 
  397.529,1063.3 401.918,1062.94 406.307,1062.47 410.695,1061.84 415.084,1061.03 419.473,1059.99 423.861,1058.67 428.25,1057 432.639,1054.92 437.027,1052.35 
  441.416,1049.2 445.805,1045.37 450.193,1040.77 454.582,1035.29 458.971,1028.82 463.36,1021.26 467.748,1012.51 472.137,1002.47 476.526,991.074 480.914,978.254 
  485.303,963.975 489.692,948.227 494.08,931.031 498.469,912.442 502.858,892.553 507.246,871.494 511.635,849.432 516.024,826.568 520.412,803.138 524.801,779.399 
  529.19,755.629 533.578,732.118 537.967,709.151 542.356,687.008 546.745,665.944 551.133,646.181 555.522,627.898 559.911,611.219 564.299,596.208 568.688,582.86 
  573.077,571.095 577.465,560.762 581.854,551.64 586.243,543.437 590.631,535.807 595.02,528.359 599.409,520.668 603.797,512.301 608.186,502.827 612.575,491.846 
  616.963,479.006 621.352,464.025 625.741,446.708 630.129,426.967 634.518,404.825 638.907,380.431 643.296,354.055 647.684,326.082 652.073,297.004 656.462,267.399 
  660.85,237.908 665.239,209.207 669.628,181.976 674.016,156.869 678.405,134.48 682.794,115.318 687.182,99.7802 691.571,88.1328 695.96,80.5017 700.348,76.8665 
  704.737,77.0646 709.126,80.8014 713.514,87.6677 717.903,97.1618 722.292,108.716 726.681,121.725 731.069,135.574 735.458,149.666 739.847,163.449 744.235,176.435 
  748.624,188.216 753.013,198.48 757.401,207.012 761.79,213.7 766.179,218.531 770.567,221.586 774.956,223.027 779.345,223.091 783.733,222.071 788.122,220.305 
  792.511,218.163 796.899,216.028 801.288,214.289 805.677,213.322 810.066,213.482 814.454,215.092 818.843,218.436 823.232,223.747 827.62,231.208 832.009,240.943 
  836.398,253.017 840.786,267.44 845.175,284.162 849.564,303.083 853.952,324.055 858.341,346.893 862.73,371.377 867.118,397.267 871.507,424.305 875.896,452.23 
  880.284,480.784 884.673,509.718 889.062,538.797 893.45,567.807 897.839,596.558 902.228,624.883 906.617,652.639 911.005,679.707 915.394,705.986 919.783,731.394 
  924.171,755.864 928.56,779.337 932.949,801.762 937.337,823.096 941.726,843.293 946.115,862.313 950.503,880.117 954.892,896.665 959.281,911.925 963.669,925.865 
  968.058,938.466 972.447,949.716 976.835,959.616 981.224,968.185 985.613,975.457 990.002,981.484 994.39,986.34 998.779,990.116 1003.17,992.919 1007.56,994.873 
  1011.94,996.114 1016.33,996.787 1020.72,997.041 1025.11,997.024 1029.5,996.88 1033.89,996.743 1038.28,996.735 1042.67,996.96 1047.05,997.501 1051.44,998.42 
  1055.83,999.757 1060.22,1001.53 1064.61,1003.73 1069,1006.33 1073.39,1009.3 1077.78,1012.58 1082.16,1016.1 1086.55,1019.79 1090.94,1023.58 1095.33,1027.4 
  1099.72,1031.17 1104.11,1034.84 1108.5,1038.36 1112.88,1041.67 1117.27,1044.75 1121.66,1047.57 1126.05,1050.12 1130.44,1052.4 1134.83,1054.41 1139.22,1056.16 
  1143.61,1057.66 1147.99,1058.94 1152.38,1060.01 1156.77,1060.91 1161.16,1061.64 1165.55,1062.23 1169.94,1062.71 1174.33,1063.09 1178.71,1063.38 1183.1,1063.61 
  1187.49,1063.79 1191.88,1063.92 1196.27,1064.02 1200.66,1064.1 1205.05,1064.15 1209.44,1064.19 1213.82,1064.22 1218.21,1064.24 1222.6,1064.25 1226.99,1064.25 
  
  "/>
<polyline clip-path="url(#clip602)" style="stroke:#e26f46; stroke-linecap:butt; stroke-linejoin:round; stroke-width:4; stroke-opacity:1; fill:none" points="
  232.382,1064.27 237.075,1064.26 241.769,1064.25 246.462,1064.24 251.155,1064.22 255.849,1064.18 260.542,1064.14 265.235,1064.08 269.929,1064 274.622,1063.88 
  279.315,1063.74 284.009,1063.54 288.702,1063.29 293.395,1062.97 298.089,1062.56 302.782,1062.04 307.475,1061.41 312.169,1060.62 316.862,1059.66 321.555,1058.51 
  326.249,1057.14 330.942,1055.53 335.635,1053.65 340.329,1051.48 345.022,1049.01 349.715,1046.22 354.409,1043.11 359.102,1039.67 363.795,1035.92 368.489,1031.87 
  373.182,1027.54 377.875,1022.97 382.569,1018.18 387.262,1013.23 391.955,1008.17 396.649,1003.04 401.342,997.911 406.035,992.826 410.729,987.844 415.422,983.015 
  420.115,978.386 424.809,973.996 429.502,969.877 434.195,966.049 438.889,962.525 443.582,959.302 448.275,956.367 452.969,953.69 457.662,951.225 462.355,948.908 
  467.049,946.656 471.742,944.362 476.435,941.901 481.129,939.121 485.822,935.85 490.515,931.89 495.209,927.024 499.902,921.018 504.595,913.626 509.289,904.592 
  513.982,893.665 518.675,880.604 523.369,865.188 528.062,847.228 532.755,826.579 537.449,803.148 542.142,776.907 546.835,747.899 551.529,716.244 556.222,682.142 
  560.916,645.874 565.609,607.795 570.302,568.331 574.996,527.966 579.689,487.231 584.382,446.686 589.076,406.906 593.769,368.46 598.462,331.896 603.156,297.724 
  607.849,266.395 612.542,238.296 617.236,213.73 621.929,192.917 626.622,175.979 631.316,162.947 636.009,153.756 640.702,148.251 645.396,146.195 650.089,147.275 
  654.782,151.113 659.476,157.282 664.169,165.315 668.862,174.721 673.556,185.001 678.249,195.661 682.942,206.228 687.636,216.264 692.329,225.374 697.022,233.225 
  701.716,239.546 706.409,244.14 711.102,246.885 715.796,247.736 720.489,246.722 725.182,243.942 729.876,239.559 734.569,233.79 739.262,226.895 743.956,219.171 
  748.649,210.934 753.342,202.516 758.036,194.251 762.729,186.468 767.422,179.483 772.116,173.597 776.809,169.09 781.502,166.218 786.196,165.212 790.889,166.277 
  795.582,169.588 800.276,175.293 804.969,183.506 809.662,194.305 814.356,207.732 819.049,223.79 823.742,242.435 828.436,263.579 833.129,287.087 837.822,312.778 
  842.516,340.427 847.209,369.768 851.902,400.502 856.596,432.302 861.289,464.827 865.982,497.725 870.676,530.648 875.369,563.263 880.062,595.256 884.756,626.348 
  889.449,656.293 894.142,684.891 898.836,711.984 903.529,737.464 908.222,761.263 912.916,783.36 917.609,803.771 922.302,822.546 926.996,839.764 931.689,855.526 
  936.382,869.95 941.076,883.165 945.769,895.304 950.462,906.501 955.156,916.886 959.849,926.579 964.542,935.69 969.236,944.315 973.929,952.535 978.622,960.416 
  983.316,968.007 988.009,975.34 992.702,982.434 997.396,989.298 1002.09,995.925 1006.78,1002.3 1011.48,1008.42 1016.17,1014.24 1020.86,1019.76 1025.56,1024.94 
  1030.25,1029.77 1034.94,1034.23 1039.64,1038.33 1044.33,1042.04 1049.02,1045.38 1053.72,1048.35 1058.41,1050.97 1063.1,1053.25 1067.8,1055.23 1072.49,1056.91 
  1077.18,1058.34 1081.88,1059.54 1086.57,1060.53 1091.26,1061.34 1095.96,1062 1100.65,1062.52 1105.34,1062.94 1110.04,1063.27 1114.73,1063.53 1119.42,1063.73 
  1124.12,1063.88 1128.81,1063.99 1133.5,1064.08 1138.2,1064.14 1142.89,1064.18 1147.58,1064.21 1152.28,1064.24 1156.97,1064.25 1161.66,1064.26 1166.36,1064.27 
  
  "/>
<polyline clip-path="url(#clip602)" style="stroke:#3da44d; stroke-linecap:butt; stroke-linejoin:round; stroke-width:4; stroke-opacity:1; fill:none" points="
  249.425,1064.26 254.72,1064.26 260.016,1064.25 265.311,1064.24 270.607,1064.22 275.902,1064.2 281.198,1064.16 286.493,1064.11 291.788,1064.05 297.084,1063.96 
  302.379,1063.85 307.675,1063.71 312.97,1063.52 318.266,1063.27 323.561,1062.96 328.857,1062.57 334.152,1062.07 339.448,1061.46 344.743,1060.69 350.039,1059.75 
  355.334,1058.61 360.63,1057.22 365.925,1055.55 371.221,1053.55 376.516,1051.18 381.812,1048.38 387.107,1045.11 392.403,1041.3 397.698,1036.9 402.993,1031.84 
  408.289,1026.08 413.584,1019.55 418.88,1012.19 424.175,1003.96 429.471,994.814 434.766,984.705 440.062,973.604 445.357,961.49 450.653,948.353 455.948,934.194 
  461.244,919.028 466.539,902.884 471.835,885.805 477.13,867.851 482.426,849.094 487.721,829.624 493.017,809.542 498.312,788.963 503.608,768.012 508.903,746.826 
  514.198,725.546 519.494,704.322 524.789,683.303 530.085,662.639 535.38,642.478 540.676,622.961 545.971,604.221 551.267,586.379 556.562,569.542 561.858,553.798 
  567.153,539.218 572.449,525.85 577.744,513.718 583.04,502.822 588.335,493.133 593.631,484.599 598.926,477.137 604.222,470.642 609.517,464.982 614.813,460.008 
  620.108,455.549 625.403,451.424 630.699,447.444 635.994,443.418 641.29,439.163 646.585,434.507 651.881,429.298 657.176,423.412 662.472,416.759 667.767,409.284 
  673.063,400.977 678.358,391.873 683.654,382.049 688.949,371.627 694.245,360.768 699.54,349.667 704.836,338.544 710.131,327.64 715.427,317.202 720.722,307.476 
  726.017,298.698 731.313,291.082 736.608,284.815 741.904,280.046 747.199,276.886 752.495,275.402 757.79,275.618 763.086,277.515 768.381,281.038 773.677,286.095 
  778.972,292.569 784.268,300.323 789.563,309.205 794.859,319.062 800.154,329.741 805.45,341.098 810.745,353.002 816.041,365.341 821.336,378.022 826.632,390.974 
  831.927,404.147 837.222,417.512 842.518,431.058 847.813,444.79 853.109,458.723 858.404,472.883 863.7,487.298 868.995,502 874.291,517.017 879.586,532.372 
  884.882,548.082 890.177,564.152 895.473,580.575 900.768,597.335 906.064,614.397 911.359,631.717 916.655,649.237 921.95,666.884 927.246,684.577 932.541,702.224 
  937.837,719.724 943.132,736.976 948.427,753.871 953.723,770.306 959.018,786.177 964.314,801.392 969.609,815.865 974.905,829.526 980.2,842.318 985.496,854.203 
  990.791,865.163 996.087,875.196 1001.38,884.325 1006.68,892.588 1011.97,900.042 1017.27,906.762 1022.56,912.834 1027.86,918.355 1033.16,923.427 1038.45,928.156 
  1043.75,932.646 1049.04,936.997 1054.34,941.3 1059.63,945.633 1064.93,950.064 1070.22,954.64 1075.52,959.397 1080.81,964.351 1086.11,969.502 1091.41,974.837 
  1096.7,980.326 1102,985.931 1107.29,991.606 1112.59,997.296 1117.88,1002.95 1123.18,1008.5 1128.47,1013.9 1133.77,1019.1 1139.06,1024.06 1144.36,1028.74 
  1149.66,1033.1 1154.95,1037.14 1160.25,1040.83 1165.54,1044.17 1170.84,1047.17 1176.13,1049.84 1181.43,1052.18 1186.72,1054.23 1192.02,1055.99 1197.31,1057.5 
  1202.61,1058.78 1207.91,1059.85 1213.2,1060.74 1218.5,1061.48 1223.79,1062.08 1229.09,1062.57 1234.38,1062.96 1239.68,1063.27 1244.97,1063.51 1250.27,1063.7 
  1255.57,1063.85 1260.86,1063.96 1266.16,1064.05 1271.45,1064.11 1276.75,1064.16 1282.04,1064.2 1287.34,1064.22 1292.63,1064.24 1297.93,1064.25 1303.22,1064.26 
  
  "/>
<polyline clip-path="url(#clip602)" style="stroke:#c271d2; stroke-linecap:butt; stroke-linejoin:round; stroke-width:4; stroke-opacity:1; fill:none" points="
  588.855,1064.28 595.286,1064.27 601.717,1064.27 608.148,1064.26 614.579,1064.24 621.01,1064.22 627.44,1064.18 633.871,1064.13 640.302,1064.07 646.733,1063.98 
  653.164,1063.86 659.595,1063.71 666.026,1063.5 672.457,1063.23 678.888,1062.89 685.319,1062.45 691.749,1061.9 698.18,1061.22 704.611,1060.38 711.042,1059.37 
  717.473,1058.15 723.904,1056.69 730.335,1054.97 736.766,1052.97 743.197,1050.65 749.628,1047.98 756.059,1044.95 762.489,1041.53 768.92,1037.71 775.351,1033.46 
  781.782,1028.77 788.213,1023.64 794.644,1018.07 801.075,1012.06 807.506,1005.63 813.937,998.796 820.368,991.591 826.798,984.056 833.229,976.247 839.66,968.226 
  846.091,960.065 852.522,951.845 858.953,943.65 865.384,935.561 871.815,927.658 878.246,920.004 884.677,912.645 891.108,905.601 897.538,898.859 903.969,892.37 
  910.4,886.04 916.831,879.735 923.262,873.281 929.693,866.464 936.124,859.045 942.555,850.764 948.986,841.359 955.417,830.577 961.848,818.196 968.278,804.037 
  974.709,787.984 981.14,769.994 987.571,750.113 994.002,728.478 1000.43,705.321 1006.86,680.966 1013.29,655.819 1019.73,630.353 1026.16,605.093 1032.59,580.59 
  1039.02,557.397 1045.45,536.042 1051.88,517.008 1058.31,500.699 1064.74,487.427 1071.17,477.394 1077.6,470.675 1084.03,467.22 1090.47,466.849 1096.9,469.261 
  1103.33,474.044 1109.76,480.693 1116.19,488.633 1122.62,497.24 1129.05,505.869 1135.48,513.878 1141.91,520.657 1148.34,525.647 1154.77,528.368 1161.21,528.428 
  1167.64,525.543 1174.07,519.544 1180.5,510.379 1186.93,498.118 1193.36,482.945 1199.79,465.152 1206.22,445.128 1212.65,423.345 1219.08,400.342 1225.51,376.707 
  1231.95,353.062 1238.38,330.041 1244.81,308.274 1251.24,288.368 1257.67,270.892 1264.1,256.36 1270.53,245.22 1276.96,237.844 1283.39,234.513 1289.82,235.421 
  1296.25,240.662 1302.69,250.236 1309.12,264.047 1315.55,281.911 1321.98,303.564 1328.41,328.666 1334.84,356.818 1341.27,387.574 1347.7,420.454 1354.13,454.957 
  1360.56,490.578 1366.99,526.82 1373.43,563.208 1379.86,599.295 1386.29,634.681 1392.72,669.01 1399.15,701.979 1405.58,733.344 1412.01,762.914 1418.44,790.553 
  1424.87,816.179 1431.3,839.755 1437.73,861.288 1444.17,880.819 1450.6,898.42 1457.03,914.187 1463.46,928.232 1469.89,940.681 1476.32,951.665 1482.75,961.317 
  1489.18,969.771 1495.61,977.154 1502.04,983.588 1508.47,989.184 1514.91,994.045 1521.34,998.263 1527.77,1001.92 1534.2,1005.09 1540.63,1007.83 1547.06,1010.2 
  1553.49,1012.24 1559.92,1014.02 1566.35,1015.57 1572.78,1016.92 1579.21,1018.14 1585.65,1019.24 1592.08,1020.29 1598.51,1021.32 1604.94,1022.36 1611.37,1023.47 
  1617.8,1024.66 1624.23,1025.97 1630.66,1027.41 1637.09,1029 1643.52,1030.73 1649.95,1032.61 1656.39,1034.61 1662.82,1036.71 1669.25,1038.88 1675.68,1041.09 
  1682.11,1043.31 1688.54,1045.51 1694.97,1047.64 1701.4,1049.67 1707.83,1051.6 1714.26,1053.38 1720.69,1055.02 1727.13,1056.49 1733.56,1057.8 1739.99,1058.95 
  1746.42,1059.94 1752.85,1060.79 1759.28,1061.51 1765.71,1062.1 1772.14,1062.58 1778.57,1062.98 1785,1063.29 1791.43,1063.54 1797.87,1063.73 1804.3,1063.88 
  1810.73,1063.99 1817.16,1064.08 1823.59,1064.14 1830.02,1064.18 1836.45,1064.22 1842.88,1064.24 1849.31,1064.26 1855.74,1064.27 1862.17,1064.27 1868.61,1064.28 
  
  "/>
<polyline clip-path="url(#clip602)" style="stroke:#ac8d18; stroke-linecap:butt; stroke-linejoin:round; stroke-width:4; stroke-opacity:1; fill:none" points="
  629.436,1064.28 635.834,1064.28 642.232,1064.27 648.63,1064.26 655.028,1064.24 661.426,1064.21 667.824,1064.17 674.222,1064.11 680.62,1064.02 687.018,1063.89 
  693.416,1063.71 699.814,1063.46 706.213,1063.12 712.611,1062.67 719.009,1062.08 725.407,1061.31 731.805,1060.33 738.203,1059.1 744.601,1057.57 750.999,1055.7 
  757.397,1053.45 763.795,1050.75 770.193,1047.57 776.591,1043.86 782.989,1039.56 789.387,1034.63 795.785,1029.03 802.183,1022.69 808.581,1015.58 814.979,1007.63 
  821.377,998.805 827.775,989.04 834.174,978.291 840.572,966.521 846.97,953.703 853.368,939.832 859.766,924.927 866.164,909.037 872.562,892.242 878.96,874.657 
  885.358,856.423 891.756,837.703 898.154,818.667 904.552,799.482 910.95,780.291 917.348,761.197 923.746,742.25 930.144,723.435 936.542,704.668 942.94,685.798 
  949.338,666.624 955.736,646.91 962.135,626.415 968.533,604.92 974.931,582.266 981.329,558.373 987.727,533.273 994.125,507.115 1000.52,480.169 1006.92,452.82 
  1013.32,425.543 1019.72,398.88 1026.12,373.4 1032.51,349.666 1038.91,328.194 1045.31,309.428 1051.71,293.709 1058.11,281.256 1064.5,272.162 1070.9,266.384 
  1077.3,263.759 1083.7,264.007 1090.1,266.754 1096.49,271.549 1102.89,277.894 1109.29,285.26 1115.69,293.123 1122.09,300.983 1128.48,308.388 1134.88,314.958 
  1141.28,320.401 1147.68,324.523 1154.08,327.241 1160.47,328.577 1166.87,328.66 1173.27,327.714 1179.67,326.046 1186.07,324.026 1192.46,322.075 1198.86,320.638 
  1205.26,320.172 1211.66,321.122 1218.06,323.907 1224.45,328.901 1230.85,336.423 1237.25,346.721 1243.65,359.965 1250.05,376.237 1256.44,395.524 1262.84,417.723 
  1269.24,442.634 1275.64,469.974 1282.04,499.384 1288.44,530.443 1294.83,562.688 1301.23,595.632 1307.63,628.784 1314.03,661.67 1320.43,693.855 1326.82,724.95 
  1333.22,754.629 1339.62,782.634 1346.02,808.776 1352.42,832.931 1358.81,855.04 1365.21,875.093 1371.61,893.126 1378.01,909.209 1384.41,923.436 1390.8,935.921 
  1397.2,946.786 1403.6,956.162 1410,964.183 1416.4,970.983 1422.79,976.698 1429.19,981.463 1435.59,985.412 1441.99,988.675 1448.39,991.383 1454.78,993.661 
  1461.18,995.628 1467.58,997.398 1473.98,999.074 1480.38,1000.75 1486.77,1002.51 1493.17,1004.41 1499.57,1006.51 1505.97,1008.84 1512.37,1011.41 1518.76,1014.23 
  1525.16,1017.27 1531.56,1020.51 1537.96,1023.9 1544.36,1027.38 1550.76,1030.88 1557.15,1034.33 1563.55,1037.68 1569.95,1040.84 1576.35,1043.75 1582.75,1046.36 
  1589.14,1048.62 1595.54,1050.51 1601.94,1051.98 1608.34,1053.03 1614.74,1053.67 1621.13,1053.91 1627.53,1053.77 1633.93,1053.29 1640.33,1052.52 1646.73,1051.52 
  1653.12,1050.35 1659.52,1049.09 1665.92,1047.81 1672.32,1046.6 1678.72,1045.52 1685.11,1044.63 1691.51,1044 1697.91,1043.66 1704.31,1043.63 1710.71,1043.93 
  1717.1,1044.54 1723.5,1045.44 1729.9,1046.58 1736.3,1047.92 1742.7,1049.41 1749.09,1050.97 1755.49,1052.56 1761.89,1054.13 1768.29,1055.63 1774.69,1057.03 
  1781.08,1058.3 1787.48,1059.43 1793.88,1060.41 1800.28,1061.24 1806.68,1061.93 1813.08,1062.5 1819.47,1062.95 1825.87,1063.3 1832.27,1063.57 1838.67,1063.78 
  1845.07,1063.93 1851.46,1064.05 1857.86,1064.12 1864.26,1064.18 1870.66,1064.22 1877.06,1064.24 1883.45,1064.26 1889.85,1064.27 1896.25,1064.28 1902.65,1064.28 
  
  "/>
<path clip-path="url(#clip600)" d="
M241.29 393.173 L834.027 393.173 L834.027 82.1328 L241.29 82.1328  Z
  " fill="#ffffff" fill-rule="evenodd" fill-opacity="1"/>
<polyline clip-path="url(#clip600)" style="stroke:#000000; stroke-linecap:butt; stroke-linejoin:round; stroke-width:4; stroke-opacity:1; fill:none" points="
  241.29,393.173 834.027,393.173 834.027,82.1328 241.29,82.1328 241.29,393.173 
  "/>
<polyline clip-path="url(#clip600)" style="stroke:#009af9; stroke-linecap:butt; stroke-linejoin:round; stroke-width:4; stroke-opacity:1; fill:none" points="
  260.962,133.973 378.994,133.973 
  "/>
<path clip-path="url(#clip600)" d="M414.499 121.299 L408.157 138.498 L420.865 138.498 L414.499 121.299 M411.861 116.693 L417.162 116.693 L430.333 151.253 L425.472 151.253 L422.324 142.387 L406.745 142.387 L403.597 151.253 L398.666 151.253 L411.861 116.693 Z" fill="#000000" fill-rule="evenodd" fill-opacity="1" /><path clip-path="url(#clip600)" d="M451.421 129.262 L451.421 115.234 L455.68 115.234 L455.68 151.253 L451.421 151.253 L451.421 147.364 Q450.078 149.679 448.018 150.813 Q445.981 151.924 443.11 151.924 Q438.411 151.924 435.448 148.174 Q432.509 144.424 432.509 138.313 Q432.509 132.202 435.448 128.452 Q438.411 124.702 443.11 124.702 Q445.981 124.702 448.018 125.836 Q450.078 126.947 451.421 129.262 M436.907 138.313 Q436.907 143.012 438.828 145.697 Q440.772 148.359 444.152 148.359 Q447.532 148.359 449.476 145.697 Q451.421 143.012 451.421 138.313 Q451.421 133.614 449.476 130.952 Q447.532 128.267 444.152 128.267 Q440.772 128.267 438.828 130.952 Q436.907 133.614 436.907 138.313 Z" fill="#000000" fill-rule="evenodd" fill-opacity="1" /><path clip-path="url(#clip600)" d="M486.629 137.225 L486.629 139.308 L467.045 139.308 Q467.323 143.706 469.684 146.021 Q472.069 148.313 476.305 148.313 Q478.758 148.313 481.05 147.711 Q483.365 147.109 485.633 145.906 L485.633 149.933 Q483.342 150.906 480.934 151.415 Q478.527 151.924 476.05 151.924 Q469.846 151.924 466.212 148.313 Q462.601 144.702 462.601 138.544 Q462.601 132.179 466.027 128.452 Q469.476 124.702 475.309 124.702 Q480.541 124.702 483.573 128.082 Q486.629 131.438 486.629 137.225 M482.369 135.975 Q482.323 132.48 480.402 130.396 Q478.504 128.313 475.356 128.313 Q471.791 128.313 469.638 130.327 Q467.508 132.341 467.184 135.998 L482.369 135.975 Z" fill="#000000" fill-rule="evenodd" fill-opacity="1" /><path clip-path="url(#clip600)" d="M493.619 115.234 L497.879 115.234 L497.879 151.253 L493.619 151.253 L493.619 115.234 Z" fill="#000000" fill-rule="evenodd" fill-opacity="1" /><path clip-path="url(#clip600)" d="M506.791 125.327 L511.05 125.327 L511.05 151.253 L506.791 151.253 L506.791 125.327 M506.791 115.234 L511.05 115.234 L511.05 120.628 L506.791 120.628 L506.791 115.234 Z" fill="#000000" fill-rule="evenodd" fill-opacity="1" /><path clip-path="url(#clip600)" d="M542.138 137.225 L542.138 139.308 L522.554 139.308 Q522.832 143.706 525.193 146.021 Q527.578 148.313 531.814 148.313 Q534.267 148.313 536.559 147.711 Q538.874 147.109 541.142 145.906 L541.142 149.933 Q538.851 150.906 536.443 151.415 Q534.036 151.924 531.559 151.924 Q525.355 151.924 521.721 148.313 Q518.11 144.702 518.11 138.544 Q518.11 132.179 521.536 128.452 Q524.985 124.702 530.818 124.702 Q536.05 124.702 539.082 128.082 Q542.138 131.438 542.138 137.225 M537.878 135.975 Q537.832 132.48 535.911 130.396 Q534.013 128.313 530.865 128.313 Q527.3 128.313 525.147 130.327 Q523.017 132.341 522.693 135.998 L537.878 135.975 Z" fill="#000000" fill-rule="evenodd" fill-opacity="1" /><path clip-path="url(#clip600)" d="M569.059 134.748 L569.059 147.41 L576.559 147.41 Q580.332 147.41 582.137 145.859 Q583.966 144.285 583.966 141.068 Q583.966 137.827 582.137 136.299 Q580.332 134.748 576.559 134.748 L569.059 134.748 M569.059 120.535 L569.059 130.952 L575.98 130.952 Q579.406 130.952 581.073 129.679 Q582.762 128.383 582.762 125.744 Q582.762 123.128 581.073 121.832 Q579.406 120.535 575.98 120.535 L569.059 120.535 M564.383 116.693 L576.327 116.693 Q581.675 116.693 584.568 118.915 Q587.462 121.137 587.462 125.234 Q587.462 128.406 585.98 130.281 Q584.499 132.156 581.628 132.619 Q585.077 133.359 586.975 135.72 Q588.897 138.058 588.897 141.577 Q588.897 146.206 585.749 148.73 Q582.6 151.253 576.79 151.253 L564.383 151.253 L564.383 116.693 Z" fill="#000000" fill-rule="evenodd" fill-opacity="1" /><path clip-path="url(#clip600)" d="M596.721 125.327 L600.98 125.327 L600.98 151.253 L596.721 151.253 L596.721 125.327 M596.721 115.234 L600.98 115.234 L600.98 120.628 L596.721 120.628 L596.721 115.234 Z" fill="#000000" fill-rule="evenodd" fill-opacity="1" /><path clip-path="url(#clip600)" d="M626.42 126.091 L626.42 130.119 Q624.614 129.193 622.67 128.73 Q620.725 128.267 618.642 128.267 Q615.471 128.267 613.873 129.239 Q612.299 130.211 612.299 132.156 Q612.299 133.637 613.434 134.494 Q614.568 135.327 617.994 136.091 L619.452 136.415 Q623.989 137.387 625.887 139.169 Q627.809 140.929 627.809 144.1 Q627.809 147.711 624.938 149.818 Q622.091 151.924 617.091 151.924 Q615.008 151.924 612.739 151.507 Q610.494 151.114 607.994 150.304 L607.994 145.906 Q610.355 147.132 612.647 147.757 Q614.938 148.359 617.184 148.359 Q620.193 148.359 621.813 147.341 Q623.434 146.299 623.434 144.424 Q623.434 142.688 622.253 141.762 Q621.096 140.836 617.137 139.98 L615.656 139.632 Q611.698 138.799 609.938 137.086 Q608.179 135.35 608.179 132.341 Q608.179 128.683 610.772 126.693 Q613.364 124.702 618.133 124.702 Q620.494 124.702 622.577 125.049 Q624.66 125.396 626.42 126.091 Z" fill="#000000" fill-rule="evenodd" fill-opacity="1" /><path clip-path="url(#clip600)" d="M653.248 126.322 L653.248 130.304 Q651.443 129.308 649.614 128.822 Q647.808 128.313 645.957 128.313 Q641.813 128.313 639.521 130.952 Q637.23 133.568 637.23 138.313 Q637.23 143.058 639.521 145.697 Q641.813 148.313 645.957 148.313 Q647.808 148.313 649.614 147.827 Q651.443 147.318 653.248 146.322 L653.248 150.257 Q651.466 151.091 649.545 151.507 Q647.646 151.924 645.494 151.924 Q639.637 151.924 636.188 148.244 Q632.739 144.563 632.739 138.313 Q632.739 131.97 636.211 128.336 Q639.707 124.702 645.771 124.702 Q647.739 124.702 649.614 125.119 Q651.489 125.512 653.248 126.322 Z" fill="#000000" fill-rule="evenodd" fill-opacity="1" /><path clip-path="url(#clip600)" d="M670.702 128.313 Q667.276 128.313 665.285 130.998 Q663.294 133.66 663.294 138.313 Q663.294 142.966 665.262 145.651 Q667.253 148.313 670.702 148.313 Q674.105 148.313 676.095 145.628 Q678.086 142.943 678.086 138.313 Q678.086 133.707 676.095 131.021 Q674.105 128.313 670.702 128.313 M670.702 124.702 Q676.257 124.702 679.429 128.313 Q682.6 131.924 682.6 138.313 Q682.6 144.679 679.429 148.313 Q676.257 151.924 670.702 151.924 Q665.123 151.924 661.952 148.313 Q658.804 144.679 658.804 138.313 Q658.804 131.924 661.952 128.313 Q665.123 124.702 670.702 124.702 Z" fill="#000000" fill-rule="evenodd" fill-opacity="1" /><path clip-path="url(#clip600)" d="M711.836 137.225 L711.836 139.308 L692.253 139.308 Q692.53 143.706 694.891 146.021 Q697.276 148.313 701.512 148.313 Q703.966 148.313 706.257 147.711 Q708.572 147.109 710.84 145.906 L710.84 149.933 Q708.549 150.906 706.141 151.415 Q703.734 151.924 701.257 151.924 Q695.054 151.924 691.419 148.313 Q687.808 144.702 687.808 138.544 Q687.808 132.179 691.234 128.452 Q694.683 124.702 700.516 124.702 Q705.748 124.702 708.78 128.082 Q711.836 131.438 711.836 137.225 M707.577 135.975 Q707.53 132.48 705.609 130.396 Q703.711 128.313 700.563 128.313 Q696.998 128.313 694.845 130.327 Q692.716 132.341 692.392 135.998 L707.577 135.975 Z" fill="#000000" fill-rule="evenodd" fill-opacity="1" /><polyline clip-path="url(#clip600)" style="stroke:#e26f46; stroke-linecap:butt; stroke-linejoin:round; stroke-width:4; stroke-opacity:1; fill:none" points="
  260.962,185.813 378.994,185.813 
  "/>
<path clip-path="url(#clip600)" d="M414.499 173.139 L408.157 190.338 L420.865 190.338 L414.499 173.139 M411.861 168.533 L417.162 168.533 L430.333 203.093 L425.472 203.093 L422.324 194.227 L406.745 194.227 L403.597 203.093 L398.666 203.093 L411.861 168.533 Z" fill="#000000" fill-rule="evenodd" fill-opacity="1" /><path clip-path="url(#clip600)" d="M451.421 181.102 L451.421 167.074 L455.68 167.074 L455.68 203.093 L451.421 203.093 L451.421 199.204 Q450.078 201.519 448.018 202.653 Q445.981 203.764 443.11 203.764 Q438.411 203.764 435.448 200.014 Q432.509 196.264 432.509 190.153 Q432.509 184.042 435.448 180.292 Q438.411 176.542 443.11 176.542 Q445.981 176.542 448.018 177.676 Q450.078 178.787 451.421 181.102 M436.907 190.153 Q436.907 194.852 438.828 197.537 Q440.772 200.199 444.152 200.199 Q447.532 200.199 449.476 197.537 Q451.421 194.852 451.421 190.153 Q451.421 185.454 449.476 182.792 Q447.532 180.107 444.152 180.107 Q440.772 180.107 438.828 182.792 Q436.907 185.454 436.907 190.153 Z" fill="#000000" fill-rule="evenodd" fill-opacity="1" /><path clip-path="url(#clip600)" d="M486.629 189.065 L486.629 191.148 L467.045 191.148 Q467.323 195.546 469.684 197.861 Q472.069 200.153 476.305 200.153 Q478.758 200.153 481.05 199.551 Q483.365 198.949 485.633 197.746 L485.633 201.773 Q483.342 202.746 480.934 203.255 Q478.527 203.764 476.05 203.764 Q469.846 203.764 466.212 200.153 Q462.601 196.542 462.601 190.384 Q462.601 184.019 466.027 180.292 Q469.476 176.542 475.309 176.542 Q480.541 176.542 483.573 179.922 Q486.629 183.278 486.629 189.065 M482.369 187.815 Q482.323 184.32 480.402 182.236 Q478.504 180.153 475.356 180.153 Q471.791 180.153 469.638 182.167 Q467.508 184.181 467.184 187.838 L482.369 187.815 Z" fill="#000000" fill-rule="evenodd" fill-opacity="1" /><path clip-path="url(#clip600)" d="M493.619 167.074 L497.879 167.074 L497.879 203.093 L493.619 203.093 L493.619 167.074 Z" fill="#000000" fill-rule="evenodd" fill-opacity="1" /><path clip-path="url(#clip600)" d="M506.791 177.167 L511.05 177.167 L511.05 203.093 L506.791 203.093 L506.791 177.167 M506.791 167.074 L511.05 167.074 L511.05 172.468 L506.791 172.468 L506.791 167.074 Z" fill="#000000" fill-rule="evenodd" fill-opacity="1" /><path clip-path="url(#clip600)" d="M542.138 189.065 L542.138 191.148 L522.554 191.148 Q522.832 195.546 525.193 197.861 Q527.578 200.153 531.814 200.153 Q534.267 200.153 536.559 199.551 Q538.874 198.949 541.142 197.746 L541.142 201.773 Q538.851 202.746 536.443 203.255 Q534.036 203.764 531.559 203.764 Q525.355 203.764 521.721 200.153 Q518.11 196.542 518.11 190.384 Q518.11 184.019 521.536 180.292 Q524.985 176.542 530.818 176.542 Q536.05 176.542 539.082 179.922 Q542.138 183.278 542.138 189.065 M537.878 187.815 Q537.832 184.32 535.911 182.236 Q534.013 180.153 530.865 180.153 Q527.3 180.153 525.147 182.167 Q523.017 184.181 522.693 187.838 L537.878 187.815 Z" fill="#000000" fill-rule="evenodd" fill-opacity="1" /><path clip-path="url(#clip600)" d="M569.059 172.375 L569.059 199.25 L574.707 199.25 Q581.86 199.25 585.17 196.009 Q588.503 192.769 588.503 185.778 Q588.503 178.834 585.17 175.616 Q581.86 172.375 574.707 172.375 L569.059 172.375 M564.383 168.533 L573.989 168.533 Q584.036 168.533 588.735 172.723 Q593.434 176.889 593.434 185.778 Q593.434 194.713 588.712 198.903 Q583.989 203.093 573.989 203.093 L564.383 203.093 L564.383 168.533 Z" fill="#000000" fill-rule="evenodd" fill-opacity="1" /><path clip-path="url(#clip600)" d="M615.725 181.148 Q615.008 180.732 614.151 180.547 Q613.318 180.338 612.299 180.338 Q608.688 180.338 606.744 182.699 Q604.823 185.037 604.823 189.435 L604.823 203.093 L600.54 203.093 L600.54 177.167 L604.823 177.167 L604.823 181.195 Q606.165 178.834 608.318 177.699 Q610.471 176.542 613.549 176.542 Q613.989 176.542 614.522 176.611 Q615.054 176.658 615.702 176.773 L615.725 181.148 Z" fill="#000000" fill-rule="evenodd" fill-opacity="1" /><path clip-path="url(#clip600)" d="M641.327 189.065 L641.327 191.148 L621.744 191.148 Q622.022 195.546 624.383 197.861 Q626.767 200.153 631.003 200.153 Q633.457 200.153 635.748 199.551 Q638.063 198.949 640.332 197.746 L640.332 201.773 Q638.04 202.746 635.633 203.255 Q633.225 203.764 630.748 203.764 Q624.545 203.764 620.91 200.153 Q617.299 196.542 617.299 190.384 Q617.299 184.019 620.725 180.292 Q624.174 176.542 630.008 176.542 Q635.239 176.542 638.271 179.922 Q641.327 183.278 641.327 189.065 M637.068 187.815 Q637.021 184.32 635.1 182.236 Q633.202 180.153 630.054 180.153 Q626.489 180.153 624.336 182.167 Q622.207 184.181 621.883 187.838 L637.068 187.815 Z" fill="#000000" fill-rule="evenodd" fill-opacity="1" /><path clip-path="url(#clip600)" d="M660.1 190.06 Q654.938 190.06 652.947 191.241 Q650.957 192.422 650.957 195.269 Q650.957 197.537 652.438 198.88 Q653.943 200.199 656.512 200.199 Q660.054 200.199 662.183 197.699 Q664.336 195.176 664.336 191.009 L664.336 190.06 L660.1 190.06 M668.595 188.301 L668.595 203.093 L664.336 203.093 L664.336 199.158 Q662.878 201.519 660.702 202.653 Q658.526 203.764 655.378 203.764 Q651.396 203.764 649.035 201.542 Q646.697 199.296 646.697 195.546 Q646.697 191.172 649.614 188.949 Q652.554 186.727 658.364 186.727 L664.336 186.727 L664.336 186.31 Q664.336 183.371 662.392 181.773 Q660.47 180.153 656.975 180.153 Q654.753 180.153 652.646 180.685 Q650.54 181.218 648.595 182.283 L648.595 178.348 Q650.933 177.445 653.132 177.005 Q655.332 176.542 657.415 176.542 Q663.04 176.542 665.818 179.459 Q668.595 182.375 668.595 188.301 Z" fill="#000000" fill-rule="evenodd" fill-opacity="1" /><path clip-path="url(#clip600)" d="M697.554 182.144 Q699.151 179.273 701.373 177.908 Q703.595 176.542 706.604 176.542 Q710.655 176.542 712.854 179.389 Q715.053 182.213 715.053 187.445 L715.053 203.093 L710.771 203.093 L710.771 187.584 Q710.771 183.857 709.452 182.051 Q708.132 180.246 705.424 180.246 Q702.114 180.246 700.192 182.445 Q698.271 184.644 698.271 188.44 L698.271 203.093 L693.989 203.093 L693.989 187.584 Q693.989 183.834 692.669 182.051 Q691.35 180.246 688.595 180.246 Q685.331 180.246 683.41 182.468 Q681.489 184.667 681.489 188.44 L681.489 203.093 L677.206 203.093 L677.206 177.167 L681.489 177.167 L681.489 181.195 Q682.947 178.81 684.984 177.676 Q687.021 176.542 689.822 176.542 Q692.646 176.542 694.614 177.977 Q696.604 179.412 697.554 182.144 Z" fill="#000000" fill-rule="evenodd" fill-opacity="1" /><polyline clip-path="url(#clip600)" style="stroke:#3da44d; stroke-linecap:butt; stroke-linejoin:round; stroke-width:4; stroke-opacity:1; fill:none" points="
  260.962,237.653 378.994,237.653 
  "/>
<path clip-path="url(#clip600)" d="M414.499 224.979 L408.157 242.178 L420.865 242.178 L414.499 224.979 M411.861 220.373 L417.162 220.373 L430.333 254.933 L425.472 254.933 L422.324 246.067 L406.745 246.067 L403.597 254.933 L398.666 254.933 L411.861 220.373 Z" fill="#000000" fill-rule="evenodd" fill-opacity="1" /><path clip-path="url(#clip600)" d="M451.421 232.942 L451.421 218.914 L455.68 218.914 L455.68 254.933 L451.421 254.933 L451.421 251.044 Q450.078 253.359 448.018 254.493 Q445.981 255.604 443.11 255.604 Q438.411 255.604 435.448 251.854 Q432.509 248.104 432.509 241.993 Q432.509 235.882 435.448 232.132 Q438.411 228.382 443.11 228.382 Q445.981 228.382 448.018 229.516 Q450.078 230.627 451.421 232.942 M436.907 241.993 Q436.907 246.692 438.828 249.377 Q440.772 252.039 444.152 252.039 Q447.532 252.039 449.476 249.377 Q451.421 246.692 451.421 241.993 Q451.421 237.294 449.476 234.632 Q447.532 231.947 444.152 231.947 Q440.772 231.947 438.828 234.632 Q436.907 237.294 436.907 241.993 Z" fill="#000000" fill-rule="evenodd" fill-opacity="1" /><path clip-path="url(#clip600)" d="M486.629 240.905 L486.629 242.988 L467.045 242.988 Q467.323 247.386 469.684 249.701 Q472.069 251.993 476.305 251.993 Q478.758 251.993 481.05 251.391 Q483.365 250.789 485.633 249.586 L485.633 253.613 Q483.342 254.586 480.934 255.095 Q478.527 255.604 476.05 255.604 Q469.846 255.604 466.212 251.993 Q462.601 248.382 462.601 242.224 Q462.601 235.859 466.027 232.132 Q469.476 228.382 475.309 228.382 Q480.541 228.382 483.573 231.762 Q486.629 235.118 486.629 240.905 M482.369 239.655 Q482.323 236.16 480.402 234.076 Q478.504 231.993 475.356 231.993 Q471.791 231.993 469.638 234.007 Q467.508 236.021 467.184 239.678 L482.369 239.655 Z" fill="#000000" fill-rule="evenodd" fill-opacity="1" /><path clip-path="url(#clip600)" d="M493.619 218.914 L497.879 218.914 L497.879 254.933 L493.619 254.933 L493.619 218.914 Z" fill="#000000" fill-rule="evenodd" fill-opacity="1" /><path clip-path="url(#clip600)" d="M506.791 229.007 L511.05 229.007 L511.05 254.933 L506.791 254.933 L506.791 229.007 M506.791 218.914 L511.05 218.914 L511.05 224.308 L506.791 224.308 L506.791 218.914 Z" fill="#000000" fill-rule="evenodd" fill-opacity="1" /><path clip-path="url(#clip600)" d="M542.138 240.905 L542.138 242.988 L522.554 242.988 Q522.832 247.386 525.193 249.701 Q527.578 251.993 531.814 251.993 Q534.267 251.993 536.559 251.391 Q538.874 250.789 541.142 249.586 L541.142 253.613 Q538.851 254.586 536.443 255.095 Q534.036 255.604 531.559 255.604 Q525.355 255.604 521.721 251.993 Q518.11 248.382 518.11 242.224 Q518.11 235.859 521.536 232.132 Q524.985 228.382 530.818 228.382 Q536.05 228.382 539.082 231.762 Q542.138 235.118 542.138 240.905 M537.878 239.655 Q537.832 236.16 535.911 234.076 Q534.013 231.993 530.865 231.993 Q527.3 231.993 525.147 234.007 Q523.017 236.021 522.693 239.678 L537.878 239.655 Z" fill="#000000" fill-rule="evenodd" fill-opacity="1" /><path clip-path="url(#clip600)" d="M559.591 220.373 L588.827 220.373 L588.827 224.308 L576.559 224.308 L576.559 254.933 L571.86 254.933 L571.86 224.308 L559.591 224.308 L559.591 220.373 Z" fill="#000000" fill-rule="evenodd" fill-opacity="1" /><path clip-path="url(#clip600)" d="M595.147 231.993 Q591.721 231.993 589.73 234.678 Q587.739 237.34 587.739 241.993 Q587.739 246.646 589.707 249.331 Q591.698 251.993 595.147 251.993 Q598.549 251.993 600.54 249.308 Q602.531 246.623 602.531 241.993 Q602.531 237.387 600.54 234.701 Q598.549 231.993 595.147 231.993 M595.147 228.382 Q600.702 228.382 603.873 231.993 Q607.045 235.604 607.045 241.993 Q607.045 248.359 603.873 251.993 Q600.702 255.604 595.147 255.604 Q589.568 255.604 586.397 251.993 Q583.249 248.359 583.249 241.993 Q583.249 235.604 586.397 231.993 Q589.568 228.382 595.147 228.382 Z" fill="#000000" fill-rule="evenodd" fill-opacity="1" /><path clip-path="url(#clip600)" d="M629.128 232.988 Q628.41 232.572 627.554 232.387 Q626.721 232.178 625.702 232.178 Q622.091 232.178 620.147 234.539 Q618.225 236.877 618.225 241.275 L618.225 254.933 L613.943 254.933 L613.943 229.007 L618.225 229.007 L618.225 233.035 Q619.568 230.674 621.721 229.539 Q623.873 228.382 626.952 228.382 Q627.392 228.382 627.924 228.451 Q628.457 228.498 629.105 228.613 L629.128 232.988 Z" fill="#000000" fill-rule="evenodd" fill-opacity="1" /><path clip-path="url(#clip600)" d="M649.822 241.669 Q649.822 237.039 647.901 234.493 Q646.003 231.947 642.554 231.947 Q639.128 231.947 637.207 234.493 Q635.308 237.039 635.308 241.669 Q635.308 246.275 637.207 248.822 Q639.128 251.368 642.554 251.368 Q646.003 251.368 647.901 248.822 Q649.822 246.275 649.822 241.669 M654.082 251.715 Q654.082 258.336 651.142 261.553 Q648.202 264.794 642.137 264.794 Q639.892 264.794 637.901 264.447 Q635.91 264.123 634.035 263.428 L634.035 259.285 Q635.91 260.303 637.739 260.789 Q639.568 261.275 641.466 261.275 Q645.656 261.275 647.739 259.076 Q649.822 256.9 649.822 252.479 L649.822 250.373 Q648.503 252.664 646.443 253.799 Q644.383 254.933 641.512 254.933 Q636.744 254.933 633.827 251.299 Q630.91 247.664 630.91 241.669 Q630.91 235.65 633.827 232.016 Q636.744 228.382 641.512 228.382 Q644.383 228.382 646.443 229.516 Q648.503 230.65 649.822 232.942 L649.822 229.007 L654.082 229.007 L654.082 251.715 Z" fill="#000000" fill-rule="evenodd" fill-opacity="1" /><path clip-path="url(#clip600)" d="M685.03 240.905 L685.03 242.988 L665.447 242.988 Q665.725 247.386 668.086 249.701 Q670.47 251.993 674.706 251.993 Q677.16 251.993 679.452 251.391 Q681.767 250.789 684.035 249.586 L684.035 253.613 Q681.743 254.586 679.336 255.095 Q676.929 255.604 674.452 255.604 Q668.248 255.604 664.614 251.993 Q661.003 248.382 661.003 242.224 Q661.003 235.859 664.429 232.132 Q667.878 228.382 673.711 228.382 Q678.943 228.382 681.975 231.762 Q685.03 235.118 685.03 240.905 M680.771 239.655 Q680.725 236.16 678.804 234.076 Q676.905 231.993 673.757 231.993 Q670.193 231.993 668.04 234.007 Q665.91 236.021 665.586 239.678 L680.771 239.655 Z" fill="#000000" fill-rule="evenodd" fill-opacity="1" /><path clip-path="url(#clip600)" d="M707.044 232.988 Q706.327 232.572 705.47 232.387 Q704.637 232.178 703.618 232.178 Q700.007 232.178 698.063 234.539 Q696.141 236.877 696.141 241.275 L696.141 254.933 L691.859 254.933 L691.859 229.007 L696.141 229.007 L696.141 233.035 Q697.484 230.674 699.637 229.539 Q701.79 228.382 704.868 228.382 Q705.308 228.382 705.841 228.451 Q706.373 228.498 707.021 228.613 L707.044 232.988 Z" fill="#000000" fill-rule="evenodd" fill-opacity="1" /><path clip-path="url(#clip600)" d="M728.039 229.771 L728.039 233.799 Q726.234 232.873 724.289 232.41 Q722.345 231.947 720.262 231.947 Q717.09 231.947 715.493 232.919 Q713.919 233.891 713.919 235.836 Q713.919 237.317 715.053 238.174 Q716.188 239.007 719.614 239.771 L721.072 240.095 Q725.609 241.067 727.507 242.849 Q729.428 244.609 729.428 247.78 Q729.428 251.391 726.558 253.498 Q723.711 255.604 718.711 255.604 Q716.627 255.604 714.359 255.187 Q712.114 254.794 709.614 253.984 L709.614 249.586 Q711.975 250.812 714.266 251.437 Q716.558 252.039 718.803 252.039 Q721.813 252.039 723.433 251.021 Q725.053 249.979 725.053 248.104 Q725.053 246.368 723.873 245.442 Q722.715 244.516 718.757 243.66 L717.276 243.312 Q713.317 242.479 711.558 240.766 Q709.799 239.03 709.799 236.021 Q709.799 232.363 712.391 230.373 Q714.984 228.382 719.752 228.382 Q722.114 228.382 724.197 228.729 Q726.28 229.076 728.039 229.771 Z" fill="#000000" fill-rule="evenodd" fill-opacity="1" /><path clip-path="url(#clip600)" d="M758.387 240.905 L758.387 242.988 L738.803 242.988 Q739.081 247.386 741.442 249.701 Q743.826 251.993 748.063 251.993 Q750.516 251.993 752.808 251.391 Q755.123 250.789 757.391 249.586 L757.391 253.613 Q755.1 254.586 752.692 255.095 Q750.285 255.604 747.808 255.604 Q741.604 255.604 737.97 251.993 Q734.359 248.382 734.359 242.224 Q734.359 235.859 737.785 232.132 Q741.234 228.382 747.067 228.382 Q752.299 228.382 755.331 231.762 Q758.387 235.118 758.387 240.905 M754.127 239.655 Q754.081 236.16 752.16 234.076 Q750.262 231.993 747.113 231.993 Q743.549 231.993 741.396 234.007 Q739.266 236.021 738.942 239.678 L754.127 239.655 Z" fill="#000000" fill-rule="evenodd" fill-opacity="1" /><path clip-path="url(#clip600)" d="M786.928 239.285 L786.928 254.933 L782.669 254.933 L782.669 239.424 Q782.669 235.743 781.234 233.914 Q779.798 232.086 776.928 232.086 Q773.479 232.086 771.488 234.285 Q769.498 236.484 769.498 240.28 L769.498 254.933 L765.215 254.933 L765.215 229.007 L769.498 229.007 L769.498 233.035 Q771.025 230.697 773.086 229.539 Q775.169 228.382 777.877 228.382 Q782.345 228.382 784.636 231.16 Q786.928 233.914 786.928 239.285 Z" fill="#000000" fill-rule="evenodd" fill-opacity="1" /><polyline clip-path="url(#clip600)" style="stroke:#c271d2; stroke-linecap:butt; stroke-linejoin:round; stroke-width:4; stroke-opacity:1; fill:none" points="
  260.962,289.493 378.994,289.493 
  "/>
<path clip-path="url(#clip600)" d="M426.536 274.875 L426.536 279.805 Q424.175 277.606 421.49 276.518 Q418.828 275.43 415.819 275.43 Q409.893 275.43 406.745 279.065 Q403.597 282.676 403.597 289.527 Q403.597 296.356 406.745 299.99 Q409.893 303.601 415.819 303.601 Q418.828 303.601 421.49 302.514 Q424.175 301.426 426.536 299.226 L426.536 304.111 Q424.083 305.777 421.328 306.611 Q418.597 307.444 415.541 307.444 Q407.694 307.444 403.18 302.652 Q398.666 297.838 398.666 289.527 Q398.666 281.194 403.18 276.403 Q407.694 271.588 415.541 271.588 Q418.643 271.588 421.374 272.421 Q424.129 273.231 426.536 274.875 Z" fill="#000000" fill-rule="evenodd" fill-opacity="1" /><path clip-path="url(#clip600)" d="M455.124 291.125 L455.124 306.773 L450.865 306.773 L450.865 291.264 Q450.865 287.583 449.43 285.754 Q447.995 283.926 445.124 283.926 Q441.675 283.926 439.685 286.125 Q437.694 288.324 437.694 292.12 L437.694 306.773 L433.411 306.773 L433.411 270.754 L437.694 270.754 L437.694 284.875 Q439.222 282.537 441.282 281.379 Q443.365 280.222 446.073 280.222 Q450.541 280.222 452.833 283 Q455.124 285.754 455.124 291.125 Z" fill="#000000" fill-rule="evenodd" fill-opacity="1" /><path clip-path="url(#clip600)" d="M463.62 280.847 L467.879 280.847 L467.879 306.773 L463.62 306.773 L463.62 280.847 M463.62 270.754 L467.879 270.754 L467.879 276.148 L463.62 276.148 L463.62 270.754 Z" fill="#000000" fill-rule="evenodd" fill-opacity="1" /><path clip-path="url(#clip600)" d="M498.342 291.125 L498.342 306.773 L494.082 306.773 L494.082 291.264 Q494.082 287.583 492.647 285.754 Q491.212 283.926 488.342 283.926 Q484.893 283.926 482.902 286.125 Q480.911 288.324 480.911 292.12 L480.911 306.773 L476.629 306.773 L476.629 280.847 L480.911 280.847 L480.911 284.875 Q482.439 282.537 484.499 281.379 Q486.582 280.222 489.291 280.222 Q493.758 280.222 496.05 283 Q498.342 285.754 498.342 291.125 Z" fill="#000000" fill-rule="evenodd" fill-opacity="1" /><path clip-path="url(#clip600)" d="M523.365 281.611 L523.365 285.639 Q521.559 284.713 519.615 284.25 Q517.67 283.787 515.587 283.787 Q512.416 283.787 510.818 284.759 Q509.244 285.731 509.244 287.676 Q509.244 289.157 510.379 290.014 Q511.513 290.847 514.939 291.611 L516.397 291.935 Q520.934 292.907 522.832 294.689 Q524.754 296.449 524.754 299.62 Q524.754 303.231 521.883 305.338 Q519.036 307.444 514.036 307.444 Q511.953 307.444 509.684 307.027 Q507.439 306.634 504.939 305.824 L504.939 301.426 Q507.3 302.652 509.592 303.277 Q511.883 303.879 514.129 303.879 Q517.138 303.879 518.758 302.861 Q520.379 301.819 520.379 299.944 Q520.379 298.208 519.198 297.282 Q518.041 296.356 514.082 295.5 L512.601 295.152 Q508.642 294.319 506.883 292.606 Q505.124 290.87 505.124 287.861 Q505.124 284.203 507.717 282.213 Q510.309 280.222 515.078 280.222 Q517.439 280.222 519.522 280.569 Q521.605 280.916 523.365 281.611 Z" fill="#000000" fill-rule="evenodd" fill-opacity="1" /><path clip-path="url(#clip600)" d="M535.749 273.486 L535.749 280.847 L544.522 280.847 L544.522 284.157 L535.749 284.157 L535.749 298.231 Q535.749 301.402 536.605 302.305 Q537.485 303.208 540.147 303.208 L544.522 303.208 L544.522 306.773 L540.147 306.773 Q535.216 306.773 533.341 304.944 Q531.466 303.092 531.466 298.231 L531.466 284.157 L528.341 284.157 L528.341 280.847 L531.466 280.847 L531.466 273.486 L535.749 273.486 Z" fill="#000000" fill-rule="evenodd" fill-opacity="1" /><path clip-path="url(#clip600)" d="M565.147 284.828 Q564.429 284.412 563.573 284.227 Q562.739 284.018 561.721 284.018 Q558.11 284.018 556.165 286.379 Q554.244 288.717 554.244 293.115 L554.244 306.773 L549.962 306.773 L549.962 280.847 L554.244 280.847 L554.244 284.875 Q555.587 282.514 557.739 281.379 Q559.892 280.222 562.971 280.222 Q563.411 280.222 563.943 280.291 Q564.476 280.338 565.124 280.453 L565.147 284.828 Z" fill="#000000" fill-rule="evenodd" fill-opacity="1" /><path clip-path="url(#clip600)" d="M581.397 293.74 Q576.235 293.74 574.244 294.921 Q572.253 296.102 572.253 298.949 Q572.253 301.217 573.735 302.56 Q575.239 303.879 577.809 303.879 Q581.35 303.879 583.48 301.379 Q585.633 298.856 585.633 294.689 L585.633 293.74 L581.397 293.74 M589.892 291.981 L589.892 306.773 L585.633 306.773 L585.633 302.838 Q584.174 305.199 581.999 306.333 Q579.823 307.444 576.675 307.444 Q572.693 307.444 570.332 305.222 Q567.994 302.976 567.994 299.226 Q567.994 294.852 570.911 292.629 Q573.85 290.407 579.661 290.407 L585.633 290.407 L585.633 289.99 Q585.633 287.051 583.688 285.453 Q581.767 283.833 578.272 283.833 Q576.05 283.833 573.943 284.365 Q571.837 284.898 569.892 285.963 L569.892 282.028 Q572.23 281.125 574.429 280.685 Q576.628 280.222 578.712 280.222 Q584.337 280.222 587.114 283.139 Q589.892 286.055 589.892 291.981 Z" fill="#000000" fill-rule="evenodd" fill-opacity="1" /><path clip-path="url(#clip600)" d="M602.786 302.884 L602.786 316.634 L598.503 316.634 L598.503 280.847 L602.786 280.847 L602.786 284.782 Q604.128 282.467 606.165 281.356 Q608.225 280.222 611.073 280.222 Q615.795 280.222 618.734 283.972 Q621.697 287.722 621.697 293.833 Q621.697 299.944 618.734 303.694 Q615.795 307.444 611.073 307.444 Q608.225 307.444 606.165 306.333 Q604.128 305.199 602.786 302.884 M617.276 293.833 Q617.276 289.134 615.332 286.472 Q613.41 283.787 610.031 283.787 Q606.651 283.787 604.707 286.472 Q602.786 289.134 602.786 293.833 Q602.786 298.532 604.707 301.217 Q606.651 303.879 610.031 303.879 Q613.41 303.879 615.332 301.217 Q617.276 298.532 617.276 293.833 Z" fill="#000000" fill-rule="evenodd" fill-opacity="1" /><path clip-path="url(#clip600)" d="M648.688 276.055 L648.688 302.93 L654.336 302.93 Q661.489 302.93 664.799 299.689 Q668.132 296.449 668.132 289.458 Q668.132 282.514 664.799 279.296 Q661.489 276.055 654.336 276.055 L648.688 276.055 M644.012 272.213 L653.619 272.213 Q663.665 272.213 668.364 276.403 Q673.063 280.569 673.063 289.458 Q673.063 298.393 668.341 302.583 Q663.619 306.773 653.619 306.773 L644.012 306.773 L644.012 272.213 Z" fill="#000000" fill-rule="evenodd" fill-opacity="1" /><path clip-path="url(#clip600)" d="M695.354 284.828 Q694.637 284.412 693.78 284.227 Q692.947 284.018 691.929 284.018 Q688.317 284.018 686.373 286.379 Q684.452 288.717 684.452 293.115 L684.452 306.773 L680.169 306.773 L680.169 280.847 L684.452 280.847 L684.452 284.875 Q685.794 282.514 687.947 281.379 Q690.1 280.222 693.179 280.222 Q693.618 280.222 694.151 280.291 Q694.683 280.338 695.331 280.453 L695.354 284.828 Z" fill="#000000" fill-rule="evenodd" fill-opacity="1" /><path clip-path="url(#clip600)" d="M720.956 292.745 L720.956 294.828 L701.373 294.828 Q701.651 299.226 704.012 301.541 Q706.396 303.833 710.632 303.833 Q713.086 303.833 715.378 303.231 Q717.692 302.629 719.961 301.426 L719.961 305.453 Q717.669 306.426 715.262 306.935 Q712.854 307.444 710.378 307.444 Q704.174 307.444 700.54 303.833 Q696.929 300.222 696.929 294.064 Q696.929 287.699 700.354 283.972 Q703.803 280.222 709.637 280.222 Q714.868 280.222 717.901 283.602 Q720.956 286.958 720.956 292.745 M716.697 291.495 Q716.651 288 714.729 285.916 Q712.831 283.833 709.683 283.833 Q706.118 283.833 703.966 285.847 Q701.836 287.861 701.512 291.518 L716.697 291.495 Z" fill="#000000" fill-rule="evenodd" fill-opacity="1" /><path clip-path="url(#clip600)" d="M739.729 293.74 Q734.567 293.74 732.576 294.921 Q730.586 296.102 730.586 298.949 Q730.586 301.217 732.067 302.56 Q733.572 303.879 736.141 303.879 Q739.683 303.879 741.813 301.379 Q743.965 298.856 743.965 294.689 L743.965 293.74 L739.729 293.74 M748.225 291.981 L748.225 306.773 L743.965 306.773 L743.965 302.838 Q742.507 305.199 740.331 306.333 Q738.155 307.444 735.007 307.444 Q731.026 307.444 728.664 305.222 Q726.327 302.976 726.327 299.226 Q726.327 294.852 729.243 292.629 Q732.183 290.407 737.993 290.407 L743.965 290.407 L743.965 289.99 Q743.965 287.051 742.021 285.453 Q740.1 283.833 736.604 283.833 Q734.382 283.833 732.276 284.365 Q730.169 284.898 728.225 285.963 L728.225 282.028 Q730.563 281.125 732.762 280.685 Q734.961 280.222 737.044 280.222 Q742.669 280.222 745.447 283.139 Q748.225 286.055 748.225 291.981 Z" fill="#000000" fill-rule="evenodd" fill-opacity="1" /><path clip-path="url(#clip600)" d="M777.183 285.824 Q778.78 282.953 781.002 281.588 Q783.224 280.222 786.234 280.222 Q790.285 280.222 792.484 283.069 Q794.683 285.893 794.683 291.125 L794.683 306.773 L790.4 306.773 L790.4 291.264 Q790.4 287.537 789.081 285.731 Q787.761 283.926 785.053 283.926 Q781.743 283.926 779.822 286.125 Q777.9 288.324 777.9 292.12 L777.9 306.773 L773.618 306.773 L773.618 291.264 Q773.618 287.514 772.298 285.731 Q770.979 283.926 768.224 283.926 Q764.961 283.926 763.039 286.148 Q761.118 288.347 761.118 292.12 L761.118 306.773 L756.836 306.773 L756.836 280.847 L761.118 280.847 L761.118 284.875 Q762.576 282.49 764.613 281.356 Q766.65 280.222 769.451 280.222 Q772.275 280.222 774.243 281.657 Q776.234 283.092 777.183 285.824 Z" fill="#000000" fill-rule="evenodd" fill-opacity="1" /><polyline clip-path="url(#clip600)" style="stroke:#ac8d18; stroke-linecap:butt; stroke-linejoin:round; stroke-width:4; stroke-opacity:1; fill:none" points="
  260.962,341.333 378.994,341.333 
  "/>
<path clip-path="url(#clip600)" d="M424.222 353.682 L424.222 344.4 L416.583 344.4 L416.583 340.557 L428.851 340.557 L428.851 355.395 Q426.143 357.316 422.879 358.312 Q419.615 359.284 415.912 359.284 Q407.81 359.284 403.226 354.562 Q398.666 349.817 398.666 341.367 Q398.666 332.895 403.226 328.173 Q407.81 323.428 415.912 323.428 Q419.291 323.428 422.324 324.261 Q425.379 325.094 427.948 326.715 L427.948 331.692 Q425.356 329.493 422.439 328.381 Q419.523 327.27 416.305 327.27 Q409.962 327.27 406.768 330.812 Q403.597 334.354 403.597 341.367 Q403.597 348.358 406.768 351.9 Q409.962 355.441 416.305 355.441 Q418.782 355.441 420.726 355.025 Q422.671 354.585 424.222 353.682 Z" fill="#000000" fill-rule="evenodd" fill-opacity="1" /><path clip-path="url(#clip600)" d="M459.384 344.585 L459.384 346.668 L439.8 346.668 Q440.078 351.066 442.439 353.381 Q444.823 355.673 449.059 355.673 Q451.513 355.673 453.805 355.071 Q456.12 354.469 458.388 353.266 L458.388 357.293 Q456.096 358.266 453.689 358.775 Q451.282 359.284 448.805 359.284 Q442.601 359.284 438.967 355.673 Q435.356 352.062 435.356 345.904 Q435.356 339.539 438.782 335.812 Q442.231 332.062 448.064 332.062 Q453.296 332.062 456.328 335.442 Q459.384 338.798 459.384 344.585 M455.124 343.335 Q455.078 339.84 453.157 337.756 Q451.259 335.673 448.11 335.673 Q444.546 335.673 442.393 337.687 Q440.263 339.701 439.939 343.358 L455.124 343.335 Z" fill="#000000" fill-rule="evenodd" fill-opacity="1" /><path clip-path="url(#clip600)" d="M487.925 342.965 L487.925 358.613 L483.666 358.613 L483.666 343.104 Q483.666 339.423 482.231 337.594 Q480.795 335.766 477.925 335.766 Q474.476 335.766 472.485 337.965 Q470.495 340.164 470.495 343.96 L470.495 358.613 L466.212 358.613 L466.212 332.687 L470.495 332.687 L470.495 336.715 Q472.022 334.377 474.082 333.219 Q476.166 332.062 478.874 332.062 Q483.342 332.062 485.633 334.84 Q487.925 337.594 487.925 342.965 Z" fill="#000000" fill-rule="evenodd" fill-opacity="1" /><path clip-path="url(#clip600)" d="M500.633 325.326 L500.633 332.687 L509.406 332.687 L509.406 335.997 L500.633 335.997 L500.633 350.071 Q500.633 353.242 501.49 354.145 Q502.369 355.048 505.031 355.048 L509.406 355.048 L509.406 358.613 L505.031 358.613 Q500.101 358.613 498.226 356.784 Q496.351 354.932 496.351 350.071 L496.351 335.997 L493.226 335.997 L493.226 332.687 L496.351 332.687 L496.351 325.326 L500.633 325.326 Z" fill="#000000" fill-rule="evenodd" fill-opacity="1" /><path clip-path="url(#clip600)" d="M525.054 335.673 Q521.629 335.673 519.638 338.358 Q517.647 341.02 517.647 345.673 Q517.647 350.326 519.615 353.011 Q521.605 355.673 525.054 355.673 Q528.457 355.673 530.448 352.988 Q532.439 350.303 532.439 345.673 Q532.439 341.067 530.448 338.381 Q528.457 335.673 525.054 335.673 M525.054 332.062 Q530.61 332.062 533.781 335.673 Q536.953 339.284 536.953 345.673 Q536.953 352.039 533.781 355.673 Q530.61 359.284 525.054 359.284 Q519.476 359.284 516.304 355.673 Q513.156 352.039 513.156 345.673 Q513.156 339.284 516.304 335.673 Q519.476 332.062 525.054 332.062 Z" fill="#000000" fill-rule="evenodd" fill-opacity="1" /><path clip-path="url(#clip600)" d="M554.059 335.673 Q550.633 335.673 548.642 338.358 Q546.652 341.02 546.652 345.673 Q546.652 350.326 548.619 353.011 Q550.61 355.673 554.059 355.673 Q557.462 355.673 559.452 352.988 Q561.443 350.303 561.443 345.673 Q561.443 341.067 559.452 338.381 Q557.462 335.673 554.059 335.673 M554.059 332.062 Q559.614 332.062 562.786 335.673 Q565.957 339.284 565.957 345.673 Q565.957 352.039 562.786 355.673 Q559.614 359.284 554.059 359.284 Q548.48 359.284 545.309 355.673 Q542.161 352.039 542.161 345.673 Q542.161 339.284 545.309 335.673 Q548.48 332.062 554.059 332.062 Z" fill="#000000" fill-rule="evenodd" fill-opacity="1" /><path clip-path="url(#clip600)" d="M592.948 342.108 L592.948 354.77 L600.448 354.77 Q604.221 354.77 606.026 353.219 Q607.855 351.645 607.855 348.428 Q607.855 345.187 606.026 343.659 Q604.221 342.108 600.448 342.108 L592.948 342.108 M592.948 327.895 L592.948 338.312 L599.869 338.312 Q603.295 338.312 604.961 337.039 Q606.651 335.743 606.651 333.104 Q606.651 330.488 604.961 329.192 Q603.295 327.895 599.869 327.895 L592.948 327.895 M588.272 324.053 L600.216 324.053 Q605.563 324.053 608.457 326.275 Q611.35 328.497 611.35 332.594 Q611.35 335.766 609.869 337.641 Q608.387 339.516 605.517 339.979 Q608.966 340.719 610.864 343.08 Q612.785 345.418 612.785 348.937 Q612.785 353.566 609.637 356.09 Q606.489 358.613 600.679 358.613 L588.272 358.613 L588.272 324.053 Z" fill="#000000" fill-rule="evenodd" fill-opacity="1" /><path clip-path="url(#clip600)" d="M620.609 332.687 L624.869 332.687 L624.869 358.613 L620.609 358.613 L620.609 332.687 M620.609 322.594 L624.869 322.594 L624.869 327.988 L620.609 327.988 L620.609 322.594 Z" fill="#000000" fill-rule="evenodd" fill-opacity="1" /><path clip-path="url(#clip600)" d="M650.308 333.451 L650.308 337.479 Q648.503 336.553 646.558 336.09 Q644.614 335.627 642.531 335.627 Q639.359 335.627 637.762 336.599 Q636.188 337.571 636.188 339.516 Q636.188 340.997 637.322 341.854 Q638.457 342.687 641.883 343.451 L643.341 343.775 Q647.878 344.747 649.776 346.529 Q651.697 348.289 651.697 351.46 Q651.697 355.071 648.827 357.178 Q645.98 359.284 640.98 359.284 Q638.896 359.284 636.628 358.867 Q634.383 358.474 631.883 357.664 L631.883 353.266 Q634.244 354.492 636.535 355.117 Q638.827 355.719 641.072 355.719 Q644.082 355.719 645.702 354.701 Q647.322 353.659 647.322 351.784 Q647.322 350.048 646.142 349.122 Q644.984 348.196 641.026 347.34 L639.545 346.992 Q635.586 346.159 633.827 344.446 Q632.068 342.71 632.068 339.701 Q632.068 336.043 634.66 334.053 Q637.253 332.062 642.021 332.062 Q644.383 332.062 646.466 332.409 Q648.549 332.756 650.308 333.451 Z" fill="#000000" fill-rule="evenodd" fill-opacity="1" /><path clip-path="url(#clip600)" d="M677.137 333.682 L677.137 337.664 Q675.331 336.668 673.503 336.182 Q671.697 335.673 669.845 335.673 Q665.702 335.673 663.41 338.312 Q661.119 340.928 661.119 345.673 Q661.119 350.418 663.41 353.057 Q665.702 355.673 669.845 355.673 Q671.697 355.673 673.503 355.187 Q675.331 354.678 677.137 353.682 L677.137 357.617 Q675.355 358.451 673.433 358.867 Q671.535 359.284 669.382 359.284 Q663.526 359.284 660.077 355.604 Q656.628 351.923 656.628 345.673 Q656.628 339.33 660.1 335.696 Q663.595 332.062 669.66 332.062 Q671.628 332.062 673.503 332.479 Q675.378 332.872 677.137 333.682 Z" fill="#000000" fill-rule="evenodd" fill-opacity="1" /><path clip-path="url(#clip600)" d="M694.591 335.673 Q691.165 335.673 689.174 338.358 Q687.183 341.02 687.183 345.673 Q687.183 350.326 689.151 353.011 Q691.142 355.673 694.591 355.673 Q697.993 355.673 699.984 352.988 Q701.975 350.303 701.975 345.673 Q701.975 341.067 699.984 338.381 Q697.993 335.673 694.591 335.673 M694.591 332.062 Q700.146 332.062 703.317 335.673 Q706.489 339.284 706.489 345.673 Q706.489 352.039 703.317 355.673 Q700.146 359.284 694.591 359.284 Q689.012 359.284 685.841 355.673 Q682.692 352.039 682.692 345.673 Q682.692 339.284 685.841 335.673 Q689.012 332.062 694.591 332.062 Z" fill="#000000" fill-rule="evenodd" fill-opacity="1" /><path clip-path="url(#clip600)" d="M735.725 344.585 L735.725 346.668 L716.141 346.668 Q716.419 351.066 718.78 353.381 Q721.165 355.673 725.401 355.673 Q727.854 355.673 730.146 355.071 Q732.461 354.469 734.729 353.266 L734.729 357.293 Q732.438 358.266 730.03 358.775 Q727.623 359.284 725.146 359.284 Q718.942 359.284 715.308 355.673 Q711.697 352.062 711.697 345.904 Q711.697 339.539 715.123 335.812 Q718.572 332.062 724.405 332.062 Q729.637 332.062 732.669 335.442 Q735.725 338.798 735.725 344.585 M731.465 343.335 Q731.419 339.84 729.498 337.756 Q727.6 335.673 724.452 335.673 Q720.887 335.673 718.734 337.687 Q716.604 339.701 716.28 343.358 L731.465 343.335 Z" fill="#000000" fill-rule="evenodd" fill-opacity="1" /></svg>
